<svg width="24" height="20" viewBox="0 0 24 20" fill="none" xmlns="http://www.w3.org/2000/svg">
<path d="M22.3515 0.936351C21.9392 0.95118 21.5482 1.14752 21.2616 1.48371C17.3274 5.9516 13.1163 11.0711 9.18571 15.5893L3.57508 10.3541C3.41807 10.1797 3.23078 10.0443 3.0251 9.95633C2.81942 9.86839 2.59986 9.82989 2.38034 9.84326C2.16083 9.85662 1.94616 9.92156 1.74998 10.034C1.5538 10.1464 1.38039 10.3038 1.24077 10.4962C1.10114 10.6886 0.998348 10.9118 0.938919 11.1516C0.87949 11.3915 0.864723 11.6427 0.895554 11.8894C0.926386 12.136 1.00214 12.3727 1.11801 12.5844C1.23389 12.7961 1.38734 12.9782 1.56863 13.1191L8.30634 19.407C8.61016 19.6918 8.99675 19.8381 9.39064 19.8173C9.78453 19.7966 10.1575 19.6103 10.4366 19.2947C14.6967 14.4568 19.3206 8.78842 23.5157 4.02415C23.7469 3.77122 23.9047 3.44469 23.9684 3.0878C24.0321 2.73092 23.9986 2.36054 23.8724 2.02571C23.7461 1.69089 23.5331 1.40743 23.2615 1.21289C22.9899 1.01835 22.6725 0.921907 22.3515 0.936351Z" fill="#444444"/>
</svg>
